<svg width="24" height="24" viewBox="0 0 24 24" xmlns="http://www.w3.org/2000/svg" xmlns:xlink="http://www.w3.org/1999/xlink" overflow="hidden"><path d="M22 17.607C21.214 19.887 18.861 23.924 16.437 23.968 14.829 23.999 14.312 23.015 12.474 23.015 10.637 23.015 10.062 23.938 8.542 23.998 5.97 24.097 2 18.171 2 13.003 2 8.256 5.308 5.903 8.198 5.86 9.748 5.832 11.212 6.905 12.157 6.905 13.106 6.905 14.884 5.615 16.753 5.804 17.535 5.837 19.732 6.119 21.142 8.181 17.401 10.623 17.984 15.73 22 17.607ZM16.778 0C13.952 0.114 11.646 3.079 11.968 5.531 14.58 5.734 17.086 2.806 16.778 0Z" fill="#36AA46"/></svg>