<svg width="24" height="24" xmlns="http://www.w3.org/2000/svg" xmlns:xlink="http://www.w3.org/1999/xlink" fill-rule="evenodd" clip-rule="evenodd" overflow="hidden"><path d="M1.571 23.664 12.102 13.163 15.814 16.864 3.295 23.805C2.819 24.069 2.236 24.065 1.763 23.794L1.571 23.664ZM11.04 12.104 1 22.115 1 2.093 11.04 12.104ZM17.314 7.967 22.219 10.686C22.701 10.954 23 11.456 23 12 23 12.544 22.701 13.046 22.219 13.314L17.18 16.107 13.165 12.104 17.314 7.967ZM1.46 0.433C1.55 0.346 1.651 0.27 1.763 0.206 2.236-0.065 2.819-0.069 3.295 0.195L15.948 7.21 12.102 11.045 1.46 0.433Z" fill="#36AA46"/></svg>