<svg xmlns="http://www.w3.org/2000/svg" xmlns:xlink="http://www.w3.org/1999/xlink" width="100.653" height="50.945" viewBox="0 0 100.653 50.945">
  <defs>
    <clipPath id="clip-path">
      <rect id="사각형_723" data-name="사각형 723" width="100.653" height="50.945" transform="translate(0 0)" fill="none"/>
    </clipPath>
  </defs>
  <g id="그룹_1834" data-name="그룹 1834" transform="translate(0 0)">
    <g id="그룹_1833" data-name="그룹 1833" clip-path="url(#clip-path)">
      <path id="패스_1441" data-name="패스 1441" d="M35.695,15.25V7.592A7.6,7.6,0,0,0,28.1,0H7.592A7.6,7.6,0,0,0,0,7.592V28.1a7.6,7.6,0,0,0,7.592,7.591H28.1A7.6,7.6,0,0,0,35.695,28.1V20.444H30.5V28.1a2.4,2.4,0,0,1-2.4,2.4H7.592a2.4,2.4,0,0,1-2.4-2.4V7.592a2.4,2.4,0,0,1,2.4-2.4H28.1a2.4,2.4,0,0,1,2.4,2.4V15.25Z" fill="#419c32"/>
      <path id="패스_1442" data-name="패스 1442" d="M35.695,15.25H22.842a7.6,7.6,0,0,0-7.591,7.592V30.5h5.193V22.842a2.4,2.4,0,0,1,2.4-2.4h20.51V15.25Z" fill="#287827"/>
      <rect id="사각형_721" data-name="사각형 721" width="5.193" height="2.648" transform="translate(15.251 35.695)" fill="#215c23"/>
      <rect id="사각형_722" data-name="사각형 722" width="5.194" height="2.648" transform="translate(30.501 20.445)" fill="#246926"/>
      <path id="패스_1443" data-name="패스 1443" d="M22.842,45.75a2.4,2.4,0,0,1-2.4-2.4v-5.01H15.25v5.01a7.6,7.6,0,0,0,7.592,7.591h20.51V45.75Z" fill="#287827"/>
      <path id="패스_1444" data-name="패스 1444" d="M73.56,36.195v3.286H62.739V44.5H58.833V39.481H47.143V36.195Zm-3.721-2.264H50.863V22.954H69.839ZM54.77,47.17H70.428v3.318H50.864v-8.4H54.77Zm-.03-16.495H65.964V26.21H54.74Z" fill="#246926"/>
      <path id="패스_1445" data-name="패스 1445" d="M75.259,24.442H88.592v3.38H79.2V39.946h1.953a75.122,75.122,0,0,0,9.518-.621l.435,3.349a76.642,76.642,0,0,1-10.884.651H75.259ZM96.684,32.07h3.969v3.411H96.684V50.8H92.746V21.962h3.938Z" fill="#246926"/>
      <path id="패스_1446" data-name="패스 1446" d="M55.794,15.261v.421H53.168v1.352h-.491V15.682H49.911v-.421Zm-4.518,2.627h3.782v.434H50.779V16.417h.5Zm3.635-3.354H50.793V12.278h4.118Zm-3.635-.428h3.152V12.7H51.276Z" fill="#246926"/>
      <path id="패스_1447" data-name="패스 1447" d="M60.1,17.02a35.671,35.671,0,0,1-4.147.16v-.434c.708,0,1.289,0,1.793-.014v-.8c-.777-.07-1.31-.547-1.31-1.065V14.6c0-.574.631-1.071,1.52-1.071s1.52.5,1.52,1.071v.266c0,.5-.5.959-1.233,1.058v.791c.687-.02,1.24-.062,1.815-.126Zm-1.9-4.279h1.563v.433H56.084v-.433h1.625v-.8h.49Zm-1.3,1.9v.2c0,.343.42.694,1.05.694s1.051-.351,1.051-.694v-.2c0-.343-.42-.687-1.051-.687s-1.05.344-1.05.687m4.132,0h1.016v.441H61.036V18.4h-.5V12h.5Z" fill="#246926"/>
      <path id="패스_1448" data-name="패스 1448" d="M64.738,15.59c-.266-.223-.561-.5-.771-.707a2.066,2.066,0,0,1-.426-.5h-.007a1.62,1.62,0,0,1-.337.469,10.98,10.98,0,0,1-.994.938l-.316-.329a8.448,8.448,0,0,0,.988-.938,1.428,1.428,0,0,0,.406-1.155V12.334h.49v1.03a1.278,1.278,0,0,0,.414,1.113,10.034,10.034,0,0,0,.861.792Zm-.952,2.3H67.5v.434H63.289V16.228h.5Zm1.848-4.378V12.081h.484V16.4h-.484V13.952H64.612V13.51Zm1.723,3.04h-.482V12h.482Z" fill="#246926"/>
      <path id="패스_1449" data-name="패스 1449" d="M71.353,12.516v.441H68.929v1.415h2.179v.441H68.929v1.5h.9a14.369,14.369,0,0,0,2.122-.147l.057.441a15.072,15.072,0,0,1-2.305.154H68.432V12.516Zm1.464,1.835V12h.49v6.4h-.49V14.8h-1.3v-.448Z" fill="#246926"/>
      <path id="패스_1450" data-name="패스 1450" d="M76.1,12.579h2.914v.448H76.6v3.214h.826a12.556,12.556,0,0,0,2.178-.175l.063.442a13.855,13.855,0,0,1-2.367.181H76.1Zm4.609,1.793H81.77v.44H80.706V18.4h-.5V12h.5Z" fill="#246926"/>
      <path id="패스_1451" data-name="패스 1451" d="M86.768,12.551v2.928H84.947v1.59h2.7V17.5H81.76v-.427h2.7v-1.59H82.635V12.551Zm-3.642,2.493h3.152V12.985H83.126Z" fill="#246926"/>
      <path id="패스_1452" data-name="패스 1452" d="M91.156,14.96c0,1.169-.59,1.856-1.577,1.856S88,16.129,88,14.96V14.3c0-1.163.588-1.849,1.575-1.849s1.577.693,1.577,1.856Zm-.483-.568c0-1.064-.436-1.477-1.094-1.477s-1.093.413-1.093,1.477v.484c0,1.064.436,1.484,1.093,1.484s1.094-.42,1.094-1.484Zm2.08.007h1.063v.441H92.753V18.4h-.5V12h.5Z" fill="#246926"/>
    </g>
  </g>
</svg>
