<?xml version="1.0" encoding="utf-8"?>
<!-- Generator: Adobe Illustrator 25.0.0, SVG Export Plug-In . SVG Version: 6.00 Build 0)  -->
<svg version="1.1" id="Layer_1" xmlns="http://www.w3.org/2000/svg" xmlns:xlink="http://www.w3.org/1999/xlink" x="0px" y="0px"
	 viewBox="0 0 24 24" style="enable-background:new 0 0 24 24;" xml:space="preserve">
<style type="text/css">
	.st0{fill:#FFFFFF;}
	.st1{fill:#1877F1;}
</style>
<g>
	<path class="st0" d="M12,24L12,24C5.4,24,0,18.6,0,12v0C0,5.4,5.4,0,12,0h0c6.6,0,12,5.4,12,12v0C24,18.6,18.6,24,12,24z"/>
	<path class="st1" d="M24,12c0-6.6-5.4-12-12-12S0,5.4,0,12C0,18,4.4,23,10.1,23.9c0-2.7,0-5.2,0-7.8v-0.1c0-0.1-0.1-0.1-0.1-0.1
		H9.9c-0.9,0-1.8,0-2.7,0H7.1C7,15.8,7,15.7,7,15.7c0-0.1,0-0.1,0-0.1c0-1,0-2.1,0-3.3c0-0.1,0-0.1,0.1-0.1c0.2,0,0.5,0,0.7,0
		c0.7,0,1.4,0,2.1,0c0.1,0,0.1,0,0.1-0.1c0-0.1,0-0.1,0-0.1c0-0.6,0-1.3,0-1.9c0-1.3,0.1-2.5,0.9-3.5c1.1-1.5,2.9-1.8,4.6-1.7
		c0.1,0,0.3,0,0.4,0c0,0,0,0,0,0c0.3,0,0.6,0,0.9,0.1c0.1,0,0.2,0,0.3,0.1c0.1,0,0.2,0.1,0.2,0.2c0,0.9,0,1.8,0,2.7
		c0,0.1,0,0.1,0,0.1h-0.1c-0.5,0-1,0-1.5,0c-0.1,0-0.2,0-0.3,0c-0.1,0-0.3,0.1-0.4,0.1c-0.4,0.2-0.8,0.5-1,0.9
		c-0.3,0.5-0.2,1.1-0.2,1.7c0,0.4,0,0.9,0,1.3c0,0.1,0,0.1,0.1,0.1c0.1,0,0.1,0,0.1,0c1,0,2,0,3,0h0.1c0.1,0,0.1,0,0.1,0.1
		c-0.1,0.4-0.1,0.9-0.2,1.4c-0.1,0.6-0.2,1.2-0.3,1.8c-0.1,0.1-0.1,0.1-0.2,0.1c-0.9,0-1.7,0-2.6,0c-0.1,0-0.1,0-0.1,0.1
		c0,0.1,0,0.1,0,0.1c0,1.3,0,2.7,0,4.1c0,1.3,0,2.7,0,4C19.6,23,24,18,24,12z"/>
</g>
</svg>
